<svg width="136" height="42" viewBox="0 0 136 42" fill="none" xmlns="http://www.w3.org/2000/svg">
<g clip-path="url(#clip0_190_38)">
<path d="M129.2 0H6.8C3.04446 0 0 3.52576 0 7.875V34.125C0 38.4742 3.04446 42 6.8 42H129.2C132.956 42 136 38.4742 136 34.125V7.875C136 3.52576 132.956 0 129.2 0Z" fill="#667CE7"/>
<path d="M47.388 37.02C47.588 36.0867 47.7814 35.1667 47.968 34.26C48.1547 33.3533 48.3347 32.46 48.508 31.58C48.788 29.9933 49.0614 28.4267 49.328 26.88C49.5947 25.32 49.788 23.8333 49.908 22.42L50.948 22.48C51.1347 22.4933 51.3147 22.5067 51.488 22.52C51.6747 22.5333 51.8547 22.5467 52.028 22.56C52.228 22.5733 52.428 22.5867 52.628 22.6C52.828 22.6 53.028 22.6 53.228 22.6C53.2014 22.7067 53.1547 22.92 53.088 23.24C53.0347 23.56 52.9747 23.8867 52.908 24.22C52.8547 24.54 52.8147 24.76 52.788 24.88L52.428 26.86L52.548 26.84C52.9347 26.24 53.3814 25.5467 53.888 24.76C54.3947 23.9733 54.868 23.22 55.308 22.5C55.9747 22.4467 56.6414 22.3867 57.308 22.32C57.9747 22.2533 58.6414 22.1667 59.308 22.06C59.0014 22.4733 58.6947 22.8867 58.388 23.3C58.0814 23.7133 57.7814 24.1267 57.488 24.54C57.1814 24.9667 56.848 25.4333 56.488 25.94C56.128 26.4467 55.7814 26.9467 55.448 27.44C55.128 27.92 54.8614 28.3333 54.648 28.68C54.7947 29.3467 54.9547 30.0067 55.128 30.66C55.3014 31.3133 55.488 31.9533 55.688 32.58C55.888 33.2067 56.088 33.84 56.288 34.48C56.488 35.12 56.6947 35.7667 56.908 36.42C56.6014 36.4067 56.288 36.4 55.968 36.4C55.648 36.3867 55.3347 36.38 55.028 36.38C54.6414 36.38 54.268 36.3867 53.908 36.4C53.548 36.4 53.1747 36.4067 52.788 36.42C52.7347 35.9933 52.6747 35.5533 52.608 35.1C52.5414 34.6333 52.4747 34.16 52.408 33.68C52.3414 33.2133 52.2747 32.7533 52.208 32.3C52.1414 31.8333 52.0747 31.3867 52.008 30.96L51.648 31.38C51.5547 31.7667 51.4547 32.26 51.348 32.86C51.2947 33.1533 51.2347 33.4467 51.168 33.74C51.1147 34.02 51.0614 34.2933 51.008 34.56C50.9547 34.88 50.8947 35.2067 50.828 35.54C50.7614 35.86 50.6947 36.1933 50.628 36.54L47.388 37.02ZM60.1063 37.08C59.2263 37.08 58.5063 36.74 57.9463 36.06C57.3863 35.38 57.1063 34.3533 57.1063 32.98C57.1063 32.22 57.1997 31.42 57.3863 30.58C57.573 29.74 57.833 28.9133 58.1663 28.1C58.4997 27.2867 58.8863 26.5333 59.3263 25.84C60.033 24.72 60.8463 23.8067 61.7663 23.1C62.6863 22.3933 63.653 22.04 64.6663 22.04C65.4663 22.04 66.0797 22.2467 66.5063 22.66C66.9463 23.06 67.253 23.58 67.4263 24.22C67.5997 24.8467 67.6863 25.5 67.6863 26.18C67.6863 27.7667 67.4397 29.2467 66.9463 30.62C66.4663 31.98 65.8397 33.1333 65.0663 34.08C64.293 35.0533 63.4663 35.8 62.5863 36.32C61.7197 36.8267 60.893 37.08 60.1063 37.08ZM61.1863 33.78C61.7863 33.78 62.313 33.58 62.7663 33.18C63.233 32.78 63.6263 32.2733 63.9463 31.66C64.2663 31.0333 64.5063 30.38 64.6663 29.7C64.8263 29.02 64.9063 28.4067 64.9063 27.86C64.9063 27.6467 64.8863 27.42 64.8463 27.18C64.8063 26.9267 64.7197 26.7067 64.5863 26.52C64.453 26.3333 64.2463 26.24 63.9663 26.24C63.353 26.24 62.7997 26.4667 62.3063 26.92C61.813 27.36 61.3997 27.92 61.0663 28.6C60.733 29.2933 60.4863 29.9733 60.3263 30.64C60.1663 31.3067 60.0863 31.9133 60.0863 32.46C60.0863 32.74 60.1863 33.0333 60.3863 33.34C60.5863 33.6333 60.853 33.78 61.1863 33.78ZM70.8096 37.48C70.3163 37.48 69.8429 37.3733 69.3896 37.16C68.9496 36.9467 68.5696 36.62 68.2496 36.18C67.9163 35.7533 67.6563 35.2133 67.4696 34.56C67.2829 33.9067 67.1896 33.14 67.1896 32.26C67.1896 30.54 67.4363 29.04 67.9296 27.76C68.4229 26.48 69.0496 25.4133 69.8096 24.56C70.5563 23.7067 71.3563 23.0733 72.2096 22.66C73.0763 22.2467 73.8829 22.04 74.6296 22.04C75.3496 22.04 75.9363 22.2 76.3896 22.52C76.8429 22.8267 77.1763 23.24 77.3896 23.76C77.6029 24.28 77.7096 24.86 77.7096 25.5L74.9696 26.02C74.8496 25.4867 74.6896 25.1067 74.4896 24.88C74.2896 24.6533 74.0629 24.54 73.8096 24.54C73.5163 24.54 73.2096 24.7 72.8896 25.02C72.5829 25.34 72.2763 25.7733 71.9696 26.32C71.6763 26.8533 71.4096 27.4533 71.1696 28.12C70.9296 28.7867 70.7296 29.4733 70.5696 30.18C70.4229 30.8867 70.3363 31.5533 70.3096 32.18C70.3096 33.0067 70.4296 33.6 70.6696 33.96C70.9229 34.3067 71.2429 34.48 71.6296 34.48C72.0029 34.48 72.3696 34.36 72.7296 34.12C73.1029 33.88 73.4096 33.56 73.6496 33.16C73.9029 32.7467 74.0363 32.2867 74.0496 31.78L71.9096 32.1L72.2896 30.12L74.1296 29.88C74.6363 29.8133 75.1696 29.7333 75.7296 29.64C76.3029 29.5467 76.8029 29.46 77.2296 29.38C77.1363 30.74 76.8696 31.9333 76.4296 32.96C76.0029 33.9733 75.4696 34.8133 74.8296 35.48C74.1896 36.1467 73.5163 36.6467 72.8096 36.98C72.1163 37.3133 71.4496 37.48 70.8096 37.48ZM79.6301 37.36C79.2301 37.36 78.8234 37.2733 78.4101 37.1C77.9967 36.9267 77.6501 36.66 77.3701 36.3C77.0901 35.94 76.9501 35.48 76.9501 34.92V34.76C76.9501 34.6933 76.9567 34.64 76.9701 34.6C77.0101 34.2533 77.0634 33.8 77.1301 33.24C77.2101 32.68 77.3034 32.0733 77.4101 31.42C77.5167 30.7533 77.6234 30.0933 77.7301 29.44C77.8501 28.7867 77.9567 28.1933 78.0501 27.66C78.2501 26.5933 78.4101 25.7333 78.5301 25.08C78.6501 24.4267 78.7434 23.9267 78.8101 23.58C78.8901 23.22 78.9501 22.9533 78.9901 22.78C79.1367 22.7667 79.2901 22.7533 79.4501 22.74C79.6234 22.7133 79.8034 22.6933 79.9901 22.68C80.1767 22.6533 80.3567 22.6333 80.5301 22.62C80.7167 22.6067 80.8967 22.5933 81.0701 22.58L82.2901 22.46C82.1167 23.2733 81.9501 24.0467 81.7901 24.78C81.6434 25.5 81.5034 26.1867 81.3701 26.84L80.4501 31.26C80.3701 31.5933 80.3101 31.8733 80.2701 32.1C80.2167 32.3133 80.1567 32.5867 80.0901 32.92C80.0367 33.24 80.0101 33.5333 80.0101 33.8C80.0101 34.0133 80.0634 34.1933 80.1701 34.34C80.2767 34.4733 80.4101 34.54 80.5701 34.54C80.7967 34.54 80.9834 34.4533 81.1301 34.28C81.2767 34.1067 81.3967 33.8933 81.4901 33.64C81.5834 33.3867 81.6567 33.1333 81.7101 32.88C81.7634 32.6133 81.8101 32.4 81.8501 32.24C81.9834 31.6267 82.1034 31.0333 82.2101 30.46C82.3301 29.8733 82.4501 29.2533 82.5701 28.6C82.7034 27.9467 82.8501 27.1933 83.0101 26.34C83.1167 25.7533 83.2234 25.16 83.3301 24.56C83.4501 23.9467 83.5634 23.3267 83.6701 22.7L86.7101 22.5C86.7101 22.5 86.6501 22.82 86.5301 23.46C86.4101 24.1 86.2367 25.0667 86.0101 26.36C85.9167 26.8533 85.8101 27.4067 85.6901 28.02C85.5834 28.6333 85.4634 29.2533 85.3301 29.88C85.1967 30.5067 85.0701 31.1 84.9501 31.66C84.8434 32.22 84.7434 32.7 84.6501 33.1C84.3834 34.1933 83.9701 35.0533 83.4101 35.68C82.8501 36.2933 82.2301 36.7267 81.5501 36.98C80.8834 37.2333 80.2434 37.36 79.6301 37.36ZM84.809 36.98C84.9957 36.2067 85.1823 35.3333 85.369 34.36C85.5557 33.3733 85.7423 32.3533 85.929 31.3C86.1157 30.2467 86.289 29.2333 86.449 28.26C86.5957 27.4067 86.7357 26.54 86.869 25.66C87.0157 24.78 87.1557 23.8933 87.289 23L90.409 22.5L89.509 27.76C89.309 29 89.129 30.1133 88.969 31.1C88.8223 32.0867 88.6757 33.02 88.529 33.9C88.3957 34.78 88.2557 35.68 88.109 36.6C87.8557 36.6 87.549 36.62 87.189 36.66C86.829 36.6867 86.469 36.7267 86.109 36.78C85.749 36.82 85.4423 36.86 85.189 36.9C84.949 36.94 84.8223 36.9667 84.809 36.98Z" fill="black"/>
<path d="M36.6625 19.04C35.8225 19.04 35.1359 18.6467 34.6025 17.86C34.0692 17.0733 33.8025 15.9933 33.8025 14.62C33.8025 13.3667 33.9759 12.1333 34.3225 10.92C34.6692 9.69333 35.1559 8.59333 35.7825 7.62C36.4092 6.64667 37.1492 5.86667 38.0025 5.28C38.8692 4.68 39.8225 4.38 40.8625 4.38C41.5159 4.38 42.0759 4.63333 42.5425 5.14C43.0092 5.64667 43.2425 6.32667 43.2425 7.18V7.42C43.2425 7.47333 43.2425 7.52 43.2425 7.56C43.2425 7.6 43.2359 7.64667 43.2225 7.7L40.6025 8.4C40.4425 8.06667 40.2559 7.9 40.0425 7.9C39.7225 7.9 39.3825 8.16 39.0225 8.68C38.6759 9.2 38.3425 9.82 38.0225 10.54C37.8092 11.02 37.6159 11.5133 37.4425 12.02C37.2825 12.5267 37.1559 13 37.0625 13.44C36.9692 13.88 36.9225 14.24 36.9225 14.52C36.9225 14.9333 36.9825 15.2333 37.1025 15.42C37.1959 15.5933 37.3425 15.68 37.5425 15.68C37.7425 15.68 37.9625 15.5867 38.2025 15.4C38.4425 15.2 38.6625 14.9533 38.8625 14.66C39.0759 14.3667 39.2159 14.0733 39.2825 13.78L41.5625 14.7C40.9092 16.1933 40.1292 17.2933 39.2225 18C38.3292 18.6933 37.4759 19.04 36.6625 19.04ZM41.4638 19.04C41.8504 17.1733 42.2104 15.3533 42.5438 13.58C42.7304 12.5 42.9171 11.4067 43.1038 10.3C43.3038 9.19333 43.4838 8.13333 43.6438 7.12C43.8038 6.10667 43.9238 5.2 44.0038 4.4C44.3638 4.41333 44.6571 4.43333 44.8838 4.46C45.1238 4.47333 45.3438 4.48667 45.5438 4.5C45.7571 4.51333 45.9904 4.52667 46.2438 4.54C46.5104 4.54 46.8438 4.54 47.2438 4.54C47.0171 5.48667 46.7904 6.43333 46.5638 7.38C46.3504 8.32667 46.1504 9.28 45.9638 10.24L47.9438 10.02C48.0371 9.55333 48.1238 9.09333 48.2038 8.64C48.2971 8.17333 48.3771 7.71333 48.4438 7.26C48.5104 6.82 48.5904 6.37333 48.6838 5.92C48.7904 5.45333 48.9038 4.98667 49.0238 4.52C49.5038 4.44 49.9904 4.38 50.4838 4.34C50.9771 4.28667 51.3904 4.25333 51.7238 4.24C52.0571 4.21333 52.2238 4.2 52.2238 4.2C52.0504 4.73333 51.8771 5.36 51.7038 6.08C51.5304 6.8 51.3638 7.56 51.2038 8.36C51.0438 9.16 50.8904 9.96 50.7438 10.76C50.5971 11.5467 50.4638 12.28 50.3438 12.96C50.1971 13.8133 50.0571 14.6733 49.9238 15.54C49.7904 16.3933 49.6571 17.2667 49.5238 18.16L46.4038 18.52C46.4971 18.12 46.5771 17.7267 46.6438 17.34C46.7238 16.94 46.7971 16.5533 46.8638 16.18C46.9971 15.54 47.1304 14.8733 47.2638 14.18C47.4104 13.4867 47.5238 12.8933 47.6038 12.4L45.6638 12.58C45.6104 12.8333 45.5571 13.1067 45.5038 13.4C45.4638 13.6933 45.4104 14.0067 45.3438 14.34C45.2771 14.6733 45.2104 15 45.1438 15.32C45.0904 15.6267 45.0371 15.9333 44.9838 16.24C44.9171 16.6 44.8438 16.96 44.7638 17.32C44.6838 17.68 44.6104 18.04 44.5438 18.4L41.4638 19.04ZM55.3119 18.96C55.3386 18.7333 55.3652 18.5133 55.3919 18.3C55.4186 18.0867 55.4452 17.8733 55.4719 17.66L55.5919 16.54C55.6052 16.3533 55.6186 16.18 55.6319 16.02C55.6452 15.86 55.6586 15.7133 55.6719 15.58H53.9319L53.1319 18.46C52.8386 18.5 52.4919 18.5467 52.0919 18.6C51.6919 18.64 51.3186 18.68 50.9719 18.72C50.7586 18.7467 50.5452 18.7733 50.3319 18.8C50.1319 18.8267 49.9252 18.8533 49.7119 18.88L51.2919 13.64C51.4786 13.0133 51.6919 12.3 51.9319 11.5C52.1719 10.7 52.4119 9.88 52.6519 9.04C52.9052 8.2 53.1386 7.41333 53.3519 6.68C53.5786 5.93333 53.7586 5.30667 53.8919 4.8C54.7986 4.73333 55.7186 4.65333 56.6519 4.56C57.5986 4.46667 58.5186 4.34 59.4119 4.18C59.3452 4.92667 59.2786 5.77333 59.2119 6.72C59.1586 7.65333 59.1052 8.62 59.0519 9.62C59.0119 10.62 58.9652 11.6067 58.9119 12.58C58.8852 13.5 58.8519 14.4533 58.8119 15.44C58.7719 16.4133 58.7319 17.4133 58.6919 18.44C58.4919 18.4667 58.2919 18.4933 58.0919 18.52C57.8919 18.5467 57.6919 18.5733 57.4919 18.6C57.1586 18.6533 56.7919 18.7133 56.3919 18.78C55.9919 18.8467 55.6319 18.9067 55.3119 18.96ZM54.4119 13.58C54.4919 13.58 54.6386 13.5733 54.8519 13.56C55.0786 13.5467 55.2919 13.5333 55.4919 13.52C55.6919 13.5067 55.8119 13.5 55.8519 13.5C55.8519 13.3267 55.8786 12.9733 55.9319 12.44C55.9852 11.9067 56.0386 11.3467 56.0919 10.76C56.1186 10.4133 56.1452 10.06 56.1719 9.7C56.2119 9.32667 56.2519 8.94667 56.2919 8.56L56.4119 6.82L56.1119 6.84L55.6519 8.56L54.4119 13.58ZM59.0242 19.04C59.1709 17.9867 59.3242 16.9267 59.4842 15.86C59.6576 14.7933 59.8309 13.7667 60.0042 12.78C60.1909 11.78 60.3642 10.88 60.5242 10.08C60.6976 9.21333 60.8709 8.33333 61.0442 7.44C61.2176 6.54667 61.3976 5.64667 61.5842 4.74L65.0842 4.28L64.0442 8.8C63.8576 9.58667 63.6642 10.4333 63.4642 11.34C63.2776 12.2333 63.1042 13.1 62.9442 13.94C62.7842 14.78 62.6576 15.5267 62.5642 16.18C62.8976 16.1533 63.2509 16.14 63.6242 16.14C64.0109 16.1267 64.3509 16.12 64.6442 16.12C64.6576 16.4267 64.6842 16.7533 64.7242 17.1C64.7642 17.4333 64.8042 17.7267 64.8442 17.98C64.8976 18.22 64.9242 18.3533 64.9242 18.38C64.8709 18.38 64.8176 18.38 64.7642 18.38C64.7242 18.38 64.6776 18.3733 64.6242 18.36H64.3042C63.7842 18.36 63.2042 18.3867 62.5642 18.44C61.9376 18.48 61.3109 18.5533 60.6842 18.66C60.0709 18.7533 59.5176 18.88 59.0242 19.04ZM65.0594 19.04C65.2061 17.9867 65.3594 16.9267 65.5194 15.86C65.6927 14.7933 65.8661 13.7667 66.0394 12.78C66.2261 11.78 66.3994 10.88 66.5594 10.08C66.7327 9.21333 66.9061 8.33333 67.0794 7.44C67.2527 6.54667 67.4327 5.64667 67.6194 4.74L71.1194 4.28L70.0794 8.8C69.8927 9.58667 69.6994 10.4333 69.4994 11.34C69.3127 12.2333 69.1394 13.1 68.9794 13.94C68.8194 14.78 68.6927 15.5267 68.5994 16.18C68.9327 16.1533 69.2861 16.14 69.6594 16.14C70.0461 16.1267 70.3861 16.12 70.6794 16.12C70.6927 16.4267 70.7194 16.7533 70.7594 17.1C70.7994 17.4333 70.8394 17.7267 70.8794 17.98C70.9327 18.22 70.9594 18.3533 70.9594 18.38C70.9061 18.38 70.8527 18.38 70.7994 18.38C70.7594 18.38 70.7127 18.3733 70.6594 18.36H70.3394C69.8194 18.36 69.2394 18.3867 68.5994 18.44C67.9727 18.48 67.3461 18.5533 66.7194 18.66C66.1061 18.7533 65.5527 18.88 65.0594 19.04ZM71.0146 19.02L73.6346 4.8L79.9546 4.26C79.8612 4.55333 79.7812 4.85333 79.7146 5.16C79.6479 5.41333 79.5812 5.68 79.5146 5.96C79.4612 6.22667 79.4146 6.46667 79.3746 6.68C79.2012 6.69333 78.9546 6.70667 78.6346 6.72C78.3146 6.72 77.9879 6.72667 77.6546 6.74C77.3212 6.74 77.0346 6.74 76.7946 6.74C76.5546 6.74 76.4279 6.74 76.4146 6.74L75.7146 10.32L76.8746 10.26C77.0212 10.2467 77.1679 10.24 77.3146 10.24C77.4746 10.24 77.6279 10.24 77.7746 10.24C77.9212 10.24 78.0546 10.24 78.1746 10.24C78.2946 10.24 78.3879 10.2333 78.4546 10.22C78.4279 10.4067 78.4012 10.5933 78.3746 10.78C78.3612 10.9533 78.3412 11.1333 78.3146 11.32L78.1346 12.42C78.0679 12.4333 77.9812 12.44 77.8746 12.44C77.7679 12.44 77.6412 12.44 77.4946 12.44C77.3479 12.4533 77.1946 12.46 77.0346 12.46C76.8746 12.46 76.7212 12.4667 76.5746 12.48C76.4012 12.4933 76.2212 12.5 76.0346 12.5C75.8479 12.5 75.6479 12.5067 75.4346 12.52L74.7546 16.2L77.6746 15.74L77.4746 18.02L71.0146 19.02ZM77.771 19.1C78.171 17.18 78.551 15.32 78.911 13.52C79.2043 11.8267 79.491 10.2 79.771 8.64C80.051 7.08 80.251 5.64667 80.371 4.34C80.4643 4.35333 80.5443 4.36 80.611 4.36C80.691 4.36 80.7576 4.36 80.811 4.36H81.231C81.5776 4.36 81.9643 4.35333 82.391 4.34C82.8176 4.31333 83.211 4.29333 83.571 4.28C83.6643 4.74667 83.751 5.20667 83.831 5.66C83.9243 6.11333 84.0043 6.55333 84.071 6.98C84.1376 7.35333 84.211 7.74 84.291 8.14C84.371 8.52667 84.451 8.92 84.531 9.32C84.5976 9.72 84.6643 10.0933 84.731 10.44C84.811 10.7733 84.8776 11.08 84.931 11.36C85.091 10.5733 85.2376 9.8 85.371 9.04C85.5176 8.28 85.6576 7.59333 85.791 6.98L86.371 4.3L88.811 4C88.5843 5.01333 88.371 6.00667 88.171 6.98C87.971 7.95333 87.7843 8.89333 87.611 9.8C87.2776 11.4267 86.9843 12.96 86.731 14.4C86.4776 15.84 86.2843 17.0933 86.151 18.16C86.2976 18.16 86.271 18.18 86.071 18.22C85.8843 18.2467 85.6043 18.2933 85.231 18.36C84.8576 18.4133 84.4576 18.4867 84.031 18.58C83.6043 18.6733 83.2243 18.7867 82.891 18.92C82.851 18.3867 82.811 17.8667 82.771 17.36C82.731 16.8533 82.6843 16.36 82.631 15.88C82.551 15.0267 82.4576 14.18 82.351 13.34C82.2443 12.5 82.1376 11.8333 82.031 11.34C81.9376 11.9267 81.8243 12.6 81.691 13.36C81.5576 14.1067 81.411 14.86 81.251 15.62L80.691 18.42L77.771 19.1ZM91.1739 19.48C90.6806 19.48 90.2073 19.3733 89.7539 19.16C89.3139 18.9467 88.9339 18.62 88.6139 18.18C88.2806 17.7533 88.0206 17.2133 87.8339 16.56C87.6473 15.9067 87.5539 15.14 87.5539 14.26C87.5539 12.54 87.8006 11.04 88.2939 9.76C88.7873 8.48 89.4139 7.41333 90.1739 6.56C90.9206 5.70667 91.7206 5.07333 92.5739 4.66C93.4406 4.24667 94.2473 4.04 94.9939 4.04C95.7139 4.04 96.3006 4.2 96.7539 4.52C97.2073 4.82667 97.5406 5.24 97.7539 5.76C97.9673 6.28 98.0739 6.86 98.0739 7.5L95.3339 8.02C95.2139 7.48667 95.0539 7.10667 94.8539 6.88C94.6539 6.65333 94.4273 6.54 94.1739 6.54C93.8806 6.54 93.5739 6.7 93.2539 7.02C92.9473 7.34 92.6406 7.77333 92.3339 8.32C92.0406 8.85333 91.7739 9.45333 91.5339 10.12C91.2939 10.7867 91.0939 11.4733 90.9339 12.18C90.7873 12.8867 90.7006 13.5533 90.6739 14.18C90.6739 15.0067 90.7939 15.6 91.0339 15.96C91.2873 16.3067 91.6073 16.48 91.9939 16.48C92.3673 16.48 92.7339 16.36 93.0939 16.12C93.4673 15.88 93.7739 15.56 94.0139 15.16C94.2673 14.7467 94.4006 14.2867 94.4139 13.78L92.2739 14.1L92.6539 12.12L94.4939 11.88C95.0006 11.8133 95.5339 11.7333 96.0939 11.64C96.6673 11.5467 97.1673 11.46 97.5939 11.38C97.5006 12.74 97.2339 13.9333 96.7939 14.96C96.3673 15.9733 95.8339 16.8133 95.1939 17.48C94.5539 18.1467 93.8806 18.6467 93.1739 18.98C92.4806 19.3133 91.8139 19.48 91.1739 19.48ZM96.8544 19.02L99.4744 4.8L105.794 4.26C105.701 4.55333 105.621 4.85333 105.554 5.16C105.488 5.41333 105.421 5.68 105.354 5.96C105.301 6.22667 105.254 6.46667 105.214 6.68C105.041 6.69333 104.794 6.70667 104.474 6.72C104.154 6.72 103.828 6.72667 103.494 6.74C103.161 6.74 102.874 6.74 102.634 6.74C102.394 6.74 102.268 6.74 102.254 6.74L101.554 10.32L102.714 10.26C102.861 10.2467 103.008 10.24 103.154 10.24C103.314 10.24 103.468 10.24 103.614 10.24C103.761 10.24 103.894 10.24 104.014 10.24C104.134 10.24 104.228 10.2333 104.294 10.22C104.268 10.4067 104.241 10.5933 104.214 10.78C104.201 10.9533 104.181 11.1333 104.154 11.32L103.974 12.42C103.908 12.4333 103.821 12.44 103.714 12.44C103.608 12.44 103.481 12.44 103.334 12.44C103.188 12.4533 103.034 12.46 102.874 12.46C102.714 12.46 102.561 12.4667 102.414 12.48C102.241 12.4933 102.061 12.5 101.874 12.5C101.688 12.5 101.488 12.5067 101.274 12.52L100.594 16.2L103.514 15.74L103.314 18.02L96.8544 19.02Z" fill="black"/>
</g>
<defs>
<clipPath id="clip0_190_38">
<rect width="136" height="42" fill="white"/>
</clipPath>
</defs>
</svg>
